HIERARCHY
ROOT Hips
{
	OFFSET 43.580002 -9.713614 83.963203
	CHANNELS 6 Xposition Yposition Zposition Xrotation Yrotation Zrotation
	JOINT spine
	{
		OFFSET 0.000000 -0.359108 6.244797
		CHANNELS 3 Xrotation Yrotation Zrotation
		JOINT spine1
		{
			OFFSET 0.000000 -0.000002 9.069412
			CHANNELS 3 Xrotation Yrotation Zrotation
			JOINT spine2
			{
				OFFSET 0.000000 -0.000001 8.690140
				CHANNELS 3 Xrotation Yrotation Zrotation
				JOINT Neck
				{
					OFFSET 0.000000 -1.063724 22.311195
					CHANNELS 3 Xrotation Yrotation Zrotation
					JOINT Head
					{
						OFFSET 0.000000 -0.000001 6.740814
						CHANNELS 3 Xrotation Yrotation Zrotation
						End Site
						{
							OFFSET 0.000000 5.380967 16.316498
						}
					}
				}
				JOINT RightShoulder
				{
					OFFSET -3.659161 0.509512 9.384682
					CHANNELS 3 Xrotation Yrotation Zrotation
					JOINT RightArm
					{
						OFFSET 0.000000 -0.000002 12.308899
						CHANNELS 3 Xrotation Yrotation Zrotation
						JOINT RightArmRoll
						{
							OFFSET 0.000000 -0.000001 6.213745
							CHANNELS 3 Xrotation Yrotation Zrotation
							JOINT RightForeArm
							{
								OFFSET 0.000000 -0.000003 18.098495
								CHANNELS 3 Xrotation Yrotation Zrotation
								JOINT RightForeArmRoll
								{
									OFFSET 0.000000 -0.000001 6.972794
									CHANNELS 3 Xrotation Yrotation Zrotation
									JOINT RightHand
									{
										OFFSET 0.000000 -0.000003 13.992905
										CHANNELS 3 Xrotation Yrotation Zrotation
										End Site
										{
											OFFSET 0.000000 0.000000 0.100006
										}
									}
								}
							}
						}
					}
				}
				JOINT LeftShoulder
				{
					OFFSET 3.659161 0.509512 9.384682
					CHANNELS 3 Xrotation Yrotation Zrotation
					JOINT LeftArm
					{
						OFFSET 0.000000 -0.000002 12.308899
						CHANNELS 3 Xrotation Yrotation Zrotation
						JOINT LeftArmRoll
						{
							OFFSET 0.000000 -0.000001 6.213745
							CHANNELS 3 Xrotation Yrotation Zrotation
							JOINT LeftForeArm
							{
								OFFSET 0.000000 -0.000003 18.098495
								CHANNELS 3 Xrotation Yrotation Zrotation
								JOINT LeftForeArmRoll
								{
									OFFSET 0.000000 -0.000001 6.972794
									CHANNELS 3 Xrotation Yrotation Zrotation
									JOINT LeftHand
									{
										OFFSET 0.000000 -0.000003 13.992905
										CHANNELS 3 Xrotation Yrotation Zrotation
										End Site
										{
											OFFSET 0.000000 0.000000 0.100006
										}
									}
								}
							}
						}
					}
				}
			}
		}
	}
	JOINT RightUpLeg
	{
		OFFSET -5.535160 0.851454 -1.014999
		CHANNELS 3 Xrotation Yrotation Zrotation
		JOINT RightUpLegRoll
		{
			OFFSET 0.000000 -0.000003 16.407501
			CHANNELS 3 Xrotation Yrotation Zrotation
			JOINT RightLeg
			{
				OFFSET 0.000000 0.000003 -20.318100
				CHANNELS 3 Xrotation Yrotation Zrotation
				JOINT RightLegRoll
				{
					OFFSET 0.000000 -0.000003 20.384598
					CHANNELS 3 Xrotation Yrotation Zrotation
					JOINT RightFoot
					{
						OFFSET 0.000000 -0.000003 16.966805
						CHANNELS 3 Xrotation Yrotation Zrotation
						JOINT RightToeBase
						{
							OFFSET 0.000000 -0.000002 14.183395
							CHANNELS 3 Xrotation Yrotation Zrotation
							End Site
							{
								OFFSET 0.006012 0.791745 6.868896
							}
						}
					}
				}
			}
		}
	}
	JOINT LeftUpLeg
	{
		OFFSET 5.535160 0.851454 -1.014999
		CHANNELS 3 Xrotation Yrotation Zrotation
		JOINT LeftUpLegRoll
		{
			OFFSET 0.000000 -0.000003 16.407600
			CHANNELS 3 Xrotation Yrotation Zrotation
			JOINT LeftLeg
			{
				OFFSET 0.000000 -0.000003 20.318100
				CHANNELS 3 Xrotation Yrotation Zrotation
				JOINT LeftLegRoll
				{
					OFFSET 0.000000 -0.000004 20.573105
					CHANNELS 3 Xrotation Yrotation Zrotation
					JOINT LeftFoot
					{
						OFFSET 0.000000 -0.000003 16.778305
						CHANNELS 3 Xrotation Yrotation Zrotation
						JOINT LeftToeBase
						{
							OFFSET 0.000000 -0.000002 14.183395
							CHANNELS 3 Xrotation Yrotation Zrotation
							End Site
							{
								OFFSET -0.026943 0.791745 6.868896
							}
						}
					}
				}
			}
		}
	}
}
MOTION
Frames: 6
Frame Time: 0.041667
62.675701 -17.010418 82.382286 -1.236952 16.112302 77.501842 -1.494363 0.811163 0.990393 1.000369 1.610245 1.993606 2.645329 1.634008 1.974197 -19.345271 10.920530 2.542312 13.995224 -16.091417 1.715645 7.689044 -36.172907 13.549279 129.597362 -5.980120 106.783922 -0.000001 0.000000 -0.000002 15.263004 -20.980007 2.646045 0.000009 -0.000000 -3.000000 -5.000139 -7.999710 -0.000126 -56.636485 73.940042 63.187699 101.779169 55.990008 -110.699260 -0.000000 -0.000000 0.000000 18.536406 8.688002 -0.889825 0.000021 -0.000013 3.000000 -5.000040 7.999942 -0.000049 -7.453803 -184.606927 -0.208342 -179.999991 0.000005 -1.136005 150.927865 -2.032336 -1.813506 -0.000005 0.000000 0.386118 69.553053 6.791045 2.360766 49.407529 -7.409502 1.491889 -37.323777 179.075102 7.034046 -0.000004 -0.000005 -0.545161 -19.305528 -2.317966 0.752801 -0.000004 0.000003 -0.061451 65.690403 -6.171210 -4.053596 25.456926 7.355187 -0.000005 
62.665600 -16.990114 82.377785 -1.221161 16.063403 77.434258 -1.485497 0.809892 0.995309 1.018033 1.608736 2.003306 2.662993 1.632615 1.983916 -19.343874 10.910480 2.548489 14.021772 -16.090626 1.729586 7.718538 -36.204814 13.580595 129.676414 -6.112634 106.916715 -0.000001 0.000000 -0.000003 15.179136 -20.984704 2.635269 0.000008 -0.000000 -3.000000 -5.000143 -7.999710 -0.000129 -56.623423 73.938779 63.174018 101.759573 55.951527 -110.701978 -0.000001 -0.000000 -0.000000 18.484722 8.665521 -0.883014 0.000021 -0.000013 3.000001 -5.000046 7.999938 -0.000049 -7.399191 -184.591641 -0.210800 -179.999991 0.000005 -1.136006 150.962863 -2.012908 -1.807103 -0.000008 0.000000 0.385548 69.534222 6.790973 2.362105 49.504282 -7.396582 1.527780 -37.271215 179.070485 7.019106 -0.000002 -0.000005 -0.545280 -19.322802 -2.315305 0.754413 -0.000004 0.000003 -0.062885 65.709227 -6.169100 -4.056679 25.456924 7.355188 -0.000005 
62.725800 -17.023113 82.398483 -1.204991 16.014106 77.366085 -1.476626 0.808735 1.000271 1.035730 1.607498 2.013122 2.680680 1.631493 1.993742 -19.342899 10.899078 2.554139 14.049072 -16.088709 1.743369 7.747706 -36.238033 13.611151 129.754360 -6.246770 107.048025 0.000001 -0.000003 -0.000001 15.096328 -20.989364 2.624608 0.000004 -0.000001 -2.999999 -5.000137 -7.999711 -0.000128 -56.610923 73.937617 63.160904 101.739035 55.913264 -110.703535 0.000000 -0.000000 0.000001 18.432153 8.643569 -0.876270 0.000023 -0.000013 2.999999 -5.000046 7.999940 -0.000051 -7.344234 -184.574333 -0.212700 -179.999991 0.000005 -1.136007 150.998052 -1.994337 -1.801214 -0.000006 0.000001 0.384960 69.515309 6.790954 2.363460 49.601182 -7.383406 1.564095 -37.218148 179.066646 7.004124 -0.000001 -0.000006 -0.545367 -19.339889 -2.312987 0.755971 -0.000003 0.000003 -0.064209 65.727600 -6.166833 -4.060056 25.456924 7.355199 -0.000001 
62.708698 -17.007614 82.391785 -1.188460 15.965106 77.298043 -1.467887 0.807693 1.005170 1.053154 1.606478 2.022842 2.698084 1.630590 2.003469 -19.342017 10.885964 2.559190 14.076988 -16.085193 1.756977 7.776631 -36.273349 13.640898 129.831200 -6.381227 107.179212 -0.000001 0.000001 0.000002 15.014520 -20.994302 2.614207 0.000006 -0.000001 -3.000001 -5.000140 -7.999710 -0.000128 -56.598366 73.936326 63.147722 101.718251 55.875363 -110.704478 -0.000000 -0.000000 0.000000 18.379110 8.622087 -0.869608 0.000023 -0.000013 2.999999 -5.000045 7.999939 -0.000049 -7.290195 -184.557039 -0.213813 -179.999991 0.000005 -1.136006 151.032749 -1.975757 -1.795358 -0.000004 0.000001 0.384369 69.496704 6.790907 2.364892 49.697891 -7.370107 1.600401 -37.165685 179.062794 6.989918 -0.000006 -0.000005 -0.545425 -19.356572 -2.310902 0.757455 -0.000004 0.000003 -0.065418 65.745550 -6.164451 -4.063731 25.456926 7.355197 0.000000 
62.694206 -16.995111 82.393295 -1.171612 15.917408 77.230670 -1.459457 0.806760 1.009900 1.069981 1.605659 2.032246 2.714909 1.629879 2.012872 -19.340891 10.870775 2.563571 14.105058 -16.079515 1.770310 7.805422 -36.311464 13.669809 129.906605 -6.517257 107.308795 -0.000001 -0.000003 0.000001 14.933295 -20.999710 2.604002 0.000007 -0.000002 -2.999999 -5.000145 -7.999710 -0.000130 -56.583784 73.934646 63.132484 101.697856 55.837930 -110.705332 0.000000 -0.000000 -0.000000 18.325703 8.601092 -0.863032 0.000023 -0.000013 2.999999 -5.000046 7.999940 -0.000050 -7.238335 -184.539704 -0.214168 -179.999991 0.000005 -1.136006 151.066094 -1.958011 -1.789055 -0.000003 0.000001 0.383788 69.478733 6.790842 2.366281 49.794169 -7.356838 1.636342 -37.114824 179.058983 6.976689 -0.000002 -0.000005 -0.545465 -19.372758 -2.308909 0.758860 -0.000003 0.000004 -0.066508 65.762543 -6.162069 -4.067460 25.456928 7.355196 0.000001 
62.706604 -16.993916 82.392487 -1.154463 15.871707 77.164677 -1.451465 0.805934 1.014359 1.085917 1.605001 2.041112 2.730835 1.629328 2.021746 -19.339281 10.852967 2.567140 14.133145 -16.071304 1.783396 7.834094 -36.352965 13.697785 129.980385 -6.654848 107.436738 -0.000003 -0.000002 0.000002 14.852653 -21.005513 2.594006 0.000004 -0.000002 -3.000000 -5.000148 -7.999710 -0.000127 -56.566776 73.932385 63.114786 101.678349 55.800976 -110.706452 -0.000001 -0.000000 -0.000000 18.272332 8.580575 -0.856576 0.000022 -0.000013 3.000001 -5.000045 7.999943 -0.000049 -7.189894 -184.521344 -0.213931 -179.999991 0.000005 -1.136005 151.097540 -1.941089 -1.783319 -0.000004 -0.000000 0.383233 69.461815 6.790787 2.367506 49.889560 -7.343750 1.671508 -37.066443 179.056797 6.963426 -0.000003 -0.000006 -0.545485 -19.388245 -2.306905 0.760184 -0.000004 0.000003 -0.067485 65.778649 -6.159772 -4.071060 25.456928 7.355199 0.000000 
